<?xml version="1.0" encoding="UTF-8"?>
<svg id="Filled" xmlns="http://www.w3.org/2000/svg" version="1.1" viewBox="0 0 499.18 415.74">
  <!-- Generator: Adobe Illustrator 29.6.0, SVG Export Plug-In . SVG Version: 2.1.1 Build 207)  -->
  <defs>
    <style>
      .st0 {
        fill: #fff;
      }
    </style>
  </defs>
  <path class="st0" d="M336.18,371.89c0-8.78.37-17.57-.16-25.96-3.34-59.96-58.11-107.18-116.96-109-16.65-.94-33.95-1.26-51.25-1.2-10.33.04-20.61.22-30.24.54C54.96,234.87-2.61,287.67.09,371.73c.17,12.72-.89,23.6,1.91,34.56,1.4,4.35,5.07,7.69,9.64,8.36,103.16,1.59,206.71,1.28,309.79.08,7.95.39,14.73-3.78,15.01-12.33.74-9.27-.28-20.74-.26-30.27v-.24h0ZM312.31,390.19c-24.32.34-108.37.18-148.45.2-68.64-.77-133.34,1.57-137.85-.96-.91-9.36-5.97-71.13,36.18-107.5,27.62-23.83,60.49-23.78,103.87-23.71,46.87.08,87.47.14,117.16,30.28,35.29,35.82,30.54,89.16,29.1,101.69h-.01Z"/>
  <path class="st0" d="M271.38,80.76c-.06-.26-.13-.52-.19-.78-.07-.26-.13-.52-.2-.78-.16-.62-.32-1.23-.49-1.84-3.68-13.47-10.15-26.45-19.62-38.07-.45-.56-.91-1.12-1.38-1.68-.09-.11-.18-.21-.27-.32-1.63-1.9-3.34-3.76-5.13-5.58C205.01-8.01,144.11-9.28,103.6,22.49c-.18.13-.35.27-.52.41-.33.26-.65.52-.97.79-9.9,8.06-18.53,18.14-25.23,30.16-16.42,29.47-17.18,60.46-7.36,87.06.01.02.01.04.02.05,12.07,32.63,40.04,58.64,74.57,67.15.1.02.19.05.29.07.4.1.81.19,1.22.28.06.02.12.03.18.04.58.13,1.15.26,1.73.38,17.94,3.78,37.52,2.83,57.48-4.3,16.87-6.03,30.93-15.78,41.85-27.86.5-.53.97-1.06,1.43-1.59.25-.27.49-.55.72-.83,21.77-25.59,30.16-60.8,22.37-93.54h0ZM231.94,156.17c-46.92,57.15-140.1,27.59-144.34-46.43-2.51-43.8,33.61-84.11,77.61-85.66,68.49-2.43,110.71,78.52,66.73,132.09h0Z"/>
  <path class="st0" d="M498.1,403.49c-.79,5.13-6.72,12.01-11.85,12.01h-121.25c1.23-4,1.96-8.35,2.18-13,.19-4.13.33-8.17.41-12.12h28.88v-.17h23.85v.17h51.45c.71,0,1.29-.58,1.29-1.29v-43.28c0-20.43-20.28-50.73-35.81-63.39-26.11-21.27-61.46-21.02-90.32-21.43-5.24-.07-10.04.03-14.29.22-7.11-8.7-15.3-16.48-24.56-23.32,2.46-.04,4.94-.09,7.43-.16h.13c32.53-.86,67.23-3.68,97.15,5.12,7.76,2.28,15.23,5.41,22.29,9.27.29.15.57.3.85.46,31.7,17.63,55.14,49.91,60.64,86.05,2.24,14.73,3.73,50.6,1.53,64.86Z"/>
  <path class="st0" d="M384.98,195.4c-.42.26-.84.52-1.26.77-14.27,8.63-30.67,13.96-48.16,14.81h-.06c-.82.04-1.64.07-2.47.09-9.85.24-20.03-.95-30.35-3.77-.39-.11-.8-.22-1.2-.34-2.76-.78-5.53-1.68-8.31-2.71-.91-.34-2.48-1.02-4.4-1.91-.01,0-.02,0-.03,0-2.97-1.39-6.78-3.27-10.42-5.2-.06-.03-.12-.06-.18-.1-.53-.3-1.07-.61-1.6-.92-.89-.52-2.66-1.53-4.5-2.7,5.34-6.25,10.14-13.01,14.28-20.22,5.06,2.79,10.78,6.28,13.13,7.21,42.8,16.78,93.11-4.8,107.42-48.95,24.17-74.56-58.33-135.27-120.96-93.99-2.06-3.54-4.27-6.98-6.63-10.32-2.28-3.21-4.69-6.31-7.22-9.29,14.75-10.09,32.5-16.2,50.29-17.56C324.79.11,327.25,0,329.68,0c.44,0,.87,0,1.3,0,8.91.15,17.79,1.41,26.39,3.73.57.15,1.14.31,1.71.48.58.16,1.15.33,1.71.5,17.92,5.45,34.47,15.52,47.39,29.66.21.21.4.42.59.64,5.7,6.33,10.67,13.46,14.72,21.34,27.88,54.23,4.9,111.99-38.51,139.04h0Z"/>
</svg>