<?xml version="1.0" encoding="UTF-8"?>
<svg id="Layer_1" data-name="Layer 1" xmlns="http://www.w3.org/2000/svg" viewBox="0 0 426.67 512">
  <defs>
    <style>
      .cls-1 {
        fill: #fff;
      }
    </style>
  </defs>
  <path class="cls-1" d="M206.85,249.98l-39.72,38.51c-6.78,6.78-15.79,10.2-24.81,10.2s-18.26-3.48-25.24-10.43l-14.53-13.95c-8.49-8.17-8.77-21.67-.6-30.17,8.17-8.49,21.7-8.75,30.17-.6l10.09,9.71,34.94-33.88c8.45-8.17,21.95-8,30.17.47,8.19,8.45,8,21.95-.47,30.17v-.02ZM298.67,362.67h-64c-11.78,0-21.33,9.56-21.33,21.33s9.56,21.33,21.33,21.33h64c11.78,0,21.33-9.56,21.33-21.33s-9.56-21.33-21.33-21.33ZM298.67,106.67h-64c-11.78,0-21.33,9.56-21.33,21.33s9.56,21.33,21.33,21.33h64c11.78,0,21.33-9.56,21.33-21.33s-9.56-21.33-21.33-21.33ZM298.67,234.67h-42.67c-11.78,0-21.33,9.56-21.33,21.33s9.56,21.33,21.33,21.33h42.67c11.78,0,21.33-9.56,21.33-21.33s-9.56-21.33-21.33-21.33ZM138.67,352c-17.66,0-32,14.34-32,32s14.34,32,32,32,32-14.34,32-32-14.34-32-32-32ZM138.67,160c17.66,0,32-14.34,32-32s-14.34-32-32-32-32,14.34-32,32,14.34,32,32,32ZM426.67,106.67v298.67c0,58.82-47.85,106.67-106.67,106.67H106.67c-58.82,0-106.67-47.85-106.67-106.67V106.67C0,47.85,47.85,0,106.67,0h213.33c58.82,0,106.67,47.85,106.67,106.67ZM384,106.67c0-35.29-28.71-64-64-64H106.67c-35.29,0-64,28.71-64,64v298.67c0,35.29,28.71,64,64,64h213.33c35.29,0,64-28.71,64-64V106.67Z"/>
</svg>