<?xml version="1.0" encoding="UTF-8"?>
<svg id="Layer_1" xmlns="http://www.w3.org/2000/svg" version="1.1" viewBox="0 0 512 512">
  <!-- Generator: Adobe Illustrator 29.6.0, SVG Export Plug-In . SVG Version: 2.1.1 Build 207)  -->
  <defs>
    <style>
      .st0 {
        fill: #fff;
      }
    </style>
  </defs>
  <path class="st0" d="M405.33,85.25h-23.48C371.93,36.63,328.83-.08,277.33-.08h-42.66c-51.5,0-94.62,36.71-104.52,85.33h-23.48C47.85,85.25,0,133.1,0,191.92v213.33c0,58.82,47.85,106.67,106.67,106.67h21.33v.16h256v-.16h21.33c58.82,0,106.67-47.85,106.67-106.67v-213.33c0-58.82-47.85-106.67-106.67-106.67h0ZM234.67,42.58h42.66c27.82,0,51.52,17.84,60.33,42.67h-163.32c8.81-24.83,32.51-42.67,60.33-42.67h0Z"/>
</svg>